<svg xmlns="http://www.w3.org/2000/svg" xmlns:xlink="http://www.w3.org/1999/xlink" width="40" zoomAndPan="magnify" viewBox="0 0 30 30.000001" height="40" preserveAspectRatio="xMidYMid meet" version="1.0"><defs><clipPath id="25e1a53ee4"><path d="M 1.308594 3.527344 L 28.886719 3.527344 L 28.886719 25.300781 L 1.308594 25.300781 Z M 1.308594 3.527344 " clip-rule="nonzero"/></clipPath><clipPath id="2ae11dc0d5"><path d="M 15 0.71875 L 27.683594 0.71875 L 27.683594 22.300781 L 15 22.300781 Z M 15 0.71875 " clip-rule="nonzero"/></clipPath><clipPath id="36fb473963"><path d="M 0.308594 0.71875 L 12.800781 0.71875 L 12.800781 22.300781 L 0.308594 22.300781 Z M 0.308594 0.71875 " clip-rule="nonzero"/></clipPath><clipPath id="4a44ae0a5a"><rect x="0" width="28" y="0" height="23"/></clipPath></defs><g clip-path="url(#25e1a53ee4)"><g transform="matrix(1, 0, 0, 1, 1, 3)"><g clip-path="url(#4a44ae0a5a)"><g clip-path="url(#2ae11dc0d5)"><path fill="#e5e3e0" d="M 21.929688 10.148438 C 21.914062 8.367188 22.902344 5.835938 25.777344 2.230469 C 26.070312 1.863281 26.058594 1.339844 25.75 0.984375 C 25.40625 0.589844 24.8125 0.535156 24.40625 0.867188 C 21.789062 2.976562 13.265625 10.550781 15.566406 17.957031 C 15.660156 18.304688 15.789062 18.636719 15.941406 18.953125 C 16.949219 21.046875 19.101562 22.484375 21.589844 22.445312 C 24.910156 22.394531 27.609375 19.679688 27.648438 16.359375 C 27.683594 13.074219 25.148438 10.375 21.929688 10.148438 " fill-opacity="1" fill-rule="nonzero"/></g><g clip-path="url(#36fb473963)"><path fill="#e5e3e0" d="M 7.0625 10.148438 C 7.046875 8.367188 8.035156 5.835938 10.910156 2.230469 C 11.203125 1.863281 11.191406 1.339844 10.882812 0.984375 C 10.539062 0.589844 9.945312 0.535156 9.539062 0.867188 C 6.921875 2.976562 -1.601562 10.550781 0.699219 17.957031 C 0.792969 18.304688 0.921875 18.636719 1.074219 18.953125 C 2.082031 21.046875 4.234375 22.484375 6.722656 22.445312 C 10.042969 22.394531 12.742188 19.679688 12.78125 16.359375 C 12.816406 13.074219 10.28125 10.375 7.0625 10.148438 " fill-opacity="1" fill-rule="nonzero"/></g></g></g></g></svg>